<svg xmlns="http://www.w3.org/2000/svg" xmlns:xlink="http://www.w3.org/1999/xlink" version="1.1" x="0px" y="0px" viewBox="0 0 100 125" enable-background="new 0 0 100 100" xml:space="preserve"><path fill="#000000" d="M95.2,50.4l-17-9v5.2c-0.2,0-0.5-0.1-0.7-0.1H59l9.2-9.2c0.1-0.1,0.1-0.1,0.1-0.2c2.8,1.6,5.7,1.7,7.3,0.1  c0.5-0.5,0.9-1.2,1-2l0.1,0.1l1.4-13.7l-13.2,1.8l0,0c-0.8,0.1-1.5,0.5-2.1,1c-1.6,1.6-1.4,4.4,0.1,7.2c-0.1,0.1-0.1,0.1-0.2,0.2  l-9.2,9.2V21.7h5.1l-9-17l-9,17h5.1v24.9H21.8v-5.1l-17,9l17,9v-5.1h18.7l-9.2,9.2c-2.8-1.5-5.6-1.7-7.2-0.1c-0.5,0.5-0.9,1.2-1,2  L23,65.3L21.6,79l13.2-1.8l0,0c0.8-0.1,1.5-0.5,2.1-1c1.6-1.6,1.4-4.4-0.1-7.2l9.2-9.2v18.6h-5.1l9,17l9-17h-5.1v-24h23.9  c0.2,0,0.5,0,0.7-0.1v5.2L95.2,50.4z"/><text x="0" y="115" fill="#000000" font-size="5px" font-weight="bold" font-family="'Helvetica Neue', Helvetica, Arial-Unicode, Arial, Sans-serif">Created by Kevin Schumacher</text><text x="0" y="120" fill="#000000" font-size="5px" font-weight="bold" font-family="'Helvetica Neue', Helvetica, Arial-Unicode, Arial, Sans-serif">from the Noun Project</text></svg>